# xmcd
#
# Track frame offsets: 
#        150
#        6851
#        17397
#        24998
#        39965
#        49943
#        65020
#        84357
#        97769
#        132151
#        142265
#        158627
#        185595
#        195218
#        209344
#        216476
#        232393
#        257055
#        271840
#        290243
#        306905
#        319084
#
# Disc length: 4420 seconds
#
# Revision: 0
# Processed by: cddbd v1.4PL0 Copyright (c) Steve Scherf et al.
# Submitted via: ExactAudioCopy v0.90b4
#
DISCID=3c114216
DTITLE=Oakridge Prebyterian Church U.K. Choir - Song For Canada
DYEAR=2003
DGENRE=Contemporary Christian
TTITLE0=Scotland the Brave
TTITLE1=O Canada
TTITLE2=God Save The Queen
TTITLE3=Locus Iste
TTITLE4=Praise To God
TTITLE5=Abide With Me
TTITLE6=Song for The Mira
TTITLE7=O Love, How Deep
TTITLE8=Sonata No. 1 In G, Op. 28, Allegro Maestoso
TTITLE9=O Lord, From Whom All Good Things Do Come
TTITLE10=Magnificat
TTITLE11=It is Well With My Soul
TTITLE12=Let All The World In Every Corner Sing
TTITLE13=The Lamb, from Songs of Innocence
TTITLE14=Gloria in Excelsis Deo
TTITLE15=Elegiac Prelude
TTITLE16=Psalm 84: Cantique de Jean Racine
TTITLE17=Joy In the Morning
TTITLE18=Danny Boy
TTITLE19=Song For Canada
TTITLE20=Carillon from Sinfonietta
TTITLE21=A Clare Benediction - Heykens' Serenade
EXTD=
EXTT0=
EXTT1=
EXTT2=
EXTT3=
EXTT4=
EXTT5=
EXTT6=
EXTT7=
EXTT8=
EXTT9=
EXTT10=
EXTT11=
EXTT12=
EXTT13=
EXTT14=
EXTT15=
EXTT16=
EXTT17=
EXTT18=
EXTT19=
EXTT20=
EXTT21=
PLAYORDER=
